<svg width="602" height="338" xmlns="http://www.w3.org/2000/svg" xmlns:xlink="http://www.w3.org/1999/xlink" xml:space="preserve" overflow="hidden"><g><path d="M0 0 600.889 0 600.889 338 0 338Z" fill="#FFFFFF" transform="scale(1.00185 1)"/><path d="M66.2856 48.6344 66.2856 286.486" stroke="#000000" stroke-width="0.938889" stroke-miterlimit="8" fill="none" fill-rule="evenodd" transform="scale(1.00185 1)"/><path d="M66.2856 286.737 495.452 286.737" stroke="#000000" stroke-width="0.938889" stroke-miterlimit="8" fill="none" fill-rule="evenodd" transform="scale(1.00185 1)"/><text font-family="Aptos,Aptos_MSFontService,sans-serif" font-weight="400" font-size="30" transform="matrix(0.37625 0 0 0.375556 28.1256 39)">Intensity</text><text font-family="Aptos,Aptos_MSFontService,sans-serif" font-weight="400" font-size="30" transform="matrix(0.37625 0 0 0.375556 69.9522 39)">/</text><text font-family="Aptos,Aptos_MSFontService,sans-serif" font-weight="400" font-size="30" transform="matrix(0.37625 0 0 0.375556 73.7827 39)">covariates</text><text font-family="Aptos,Aptos_MSFontService,sans-serif" font-weight="400" font-size="30" transform="matrix(0.37625 0 0 0.375556 463.54 303)">One</text><text font-family="Aptos,Aptos_MSFontService,sans-serif" font-weight="400" font-size="30" transform="matrix(0.37625 0 0 0.375556 483.921 303)">-</text><text font-family="Aptos,Aptos_MSFontService,sans-serif" font-weight="400" font-size="30" transform="matrix(0.37625 0 0 0.375556 487.763 303)">dimensional</text><text font-family="Aptos,Aptos_MSFontService,sans-serif" font-weight="400" font-size="30" transform="matrix(0.37625 0 0 0.375556 463.54 317)">space</text><path d="M65.5344 73.6404C106.617 69.2262 147.7 64.8115 172.691 93.5062 197.682 122.201 184.577 219.735 215.481 245.809 246.384 271.883 328.977 273.262 358.112 249.948 387.247 226.633 366.89 135.307 390.296 105.922 413.701 76.5378 498.55 73.6404 498.55 73.6404L498.55 73.6404" stroke="#FF0000" stroke-width="1.87778" stroke-miterlimit="8" fill="none" fill-rule="evenodd" transform="scale(1.00185 1)"/><text fill="#0070C0" font-family="Aptos,Aptos_MSFontService,sans-serif" font-weight="400" font-size="23.3333" transform="matrix(0.37625 0 0 0.375556 504.009 89)">Water</text><path d="M64.4078 83.7804C105.491 79.3662 146.573 74.9515 171.565 103.646 196.556 132.341 183.451 229.875 214.354 255.949 245.258 282.023 327.85 283.402 356.986 260.088 386.12 236.773 365.763 145.447 389.169 116.062 412.574 86.6778 497.423 83.7804 497.423 83.7804L497.423 83.7804" stroke="#0070C0" stroke-width="0.938889" stroke-miterlimit="8" fill="none" fill-rule="evenodd" transform="scale(1.00185 1)"/><text fill="#FF0000" font-family="Aptos,Aptos_MSFontService,sans-serif" font-weight="400" font-size="23.3333" transform="matrix(0.37625 0 0 0.375556 504.397 66)">Intensity of</text><text fill="#FF0000" font-family="Aptos,Aptos_MSFontService,sans-serif" font-weight="400" font-size="23.3333" transform="matrix(0.37625 0 0 0.375556 504.397 77)">individuals</text><path d="M65.7222 272.635C112.635 274.29 159.547 275.945 189.72 246.986 219.893 218.027 195.507 127.841 246.76 98.8826 298.012 69.9239 457.626 76.3362 497.236 73.2333" stroke="#78206E" stroke-width="1.40833" stroke-miterlimit="8" fill="none" fill-rule="evenodd" transform="scale(1.00185 1)"/><text fill="#78206E" font-family="Aptos,Aptos_MSFontService,sans-serif" font-weight="400" font-size="23.3333" transform="matrix(0.37625 0 0 0.375556 401.767 68)">Temperature</text><path d="M66.4733 79.691C112.552 75.1028 158.631 70.5143 187.65 98.3272 216.669 126.14 187.926 216.638 240.588 246.569 293.249 276.499 503.62 277.911 503.62 277.911L503.62 277.911" stroke="#196B24" stroke-width="1.40833" stroke-miterlimit="8" fill="none" fill-rule="evenodd" transform="scale(1.00185 1)"/><text fill="#196B24" font-family="Aptos,Aptos_MSFontService,sans-serif" font-weight="400" font-size="23.3333" transform="matrix(0.37625 0 0 0.375556 479.169 270)">Ph</text></g></svg>